/* XPM */
static char *_9107650b8d84c53fb73943c7e6e146c[] = {
/* columns rows colors chars-per-pixel */
"32 32 8 1 ",
"  c #01456D",
". c #6D2DAF",
"X c #2D7FAF",
"o c #437999",
"O c #A45EEC",
"+ c #1885C4",
"@ c #A482C8",
"# c #D1CEEA",
/* pixels */
"OOO.O.OOOOOOO.O.OO.O.OOOOOOO.O.O",
"@@@@.@@@@@@@@@.@@@@.@@@@@@@@@.@@",
"################################",
"++++++++++++++++++++++++++++++++",
"++++++++++++++++++++++++++++++++",
"++++++++++++++++++++++++++++++++",
"++++++++++++++++++++++++++++++++",
"++++++++++++++++++++++++++++++++",
"++++++++++++++++++++++++++++++++",
"oooooooooooooooooooooooooooooooo",
"oooooooooooooooooooooooooooooooo",
"oooooooooooooooooooooooooooooooo",
"oooooooooooooooooooooooooooooooo",
"oooooooooooooooooooooooooooooooo",
"                                ",
"                                ",
"                                ",
"                                ",
"                                ",
"oooooooooooooooooooooooooooooooo",
"oooooooooooooooooooooooooooooooo",
"oooooooooooooooooooooooooooooooo",
"oooooooooooooooooooooooooooooooo",
"oooooooooooooooooooooooooooooooo",
"XXXXXXXXXXXXXXXXXXXXXXXXXXXXXXXX",
"XXXXXXXXXXXXXXXXXXXXXXXXXXXXXXXX",
"XXXXXXXXXXXXXXXXXXXXXXXXXXXXXXXX",
"XXXXXXXXXXXXXXXXXXXXXXXXXXXXXXXX",
"XXXXXXXXXXXXXXXXXXXXXXXXXXXXXXXX",
"XXXXXXXXXXXXXXXXXXXXXXXXXXXXXXXX",
"XXXXXXXXXXXXXXXXXXXXXXXXXXXXXXXX",
"XXXXXXXXXXXXXXXXXXXXXXXXXXXXXXXX"
};
