/* XPM */
static char *_69848bc8adc4146e7d0caba2bb06d62[] = {
/* columns rows colors chars-per-pixel */
"32 32 7 1 ",
"  c #620C0D",
". c #AF2D2F",
"X c #994344",
"o c #DAEC5E",
"O c #E8FD4D",
"+ c #C0C882",
"@ c #D1CEEA",
/* pixels */
"ooooOoOoooOoOooooooooOoOooOoOooo",
"+++++O+++++O++++++++++O++++O++++",
"@@@@@@@@@@@@@@@@@@@@@@@@@@@@@@@@",
"................................",
"................................",
"................................",
"................................",
"................................",
"................................",
"XXXXXXXXXXXXXXXXXXXXXXXXXXXXXXXX",
"XXXXXXXXXXXXXXXXXXXXXXXXXXXXXXXX",
"XXXXXXXXXXXXXXXXXXXXXXXXXXXXXXXX",
"XXXXXXXXXXXXXXXXXXXXXXXXXXXXXXXX",
"XXXXXXXXXXXXXXXXXXXXXXXXXXXXXXXX",
"                                ",
"                                ",
"                                ",
"                                ",
"                                ",
"XXXXXXXXXXXXXXXXXXXXXXXXXXXXXXXX",
"XXXXXXXXXXXXXXXXXXXXXXXXXXXXXXXX",
"XXXXXXXXXXXXXXXXXXXXXXXXXXXXXXXX",
"XXXXXXXXXXXXXXXXXXXXXXXXXXXXXXXX",
"XXXXXXXXXXXXXXXXXXXXXXXXXXXXXXXX",
"................................",
"................................",
"................................",
"................................",
"................................",
"................................",
"................................",
"................................"
};
